<?xml version="1.0" encoding="UTF-8" standalone="no"?>
<!-- Created with Inkscape (http://www.inkscape.org/) -->

<svg
   width="300mm"
   height="300mm"
   viewBox="0 0 300 300"
   version="1.1"
   id="svg1"
   xml:space="preserve"
   xmlns:xlink="http://www.w3.org/1999/xlink"
   xmlns="http://www.w3.org/2000/svg"
   xmlns:svg="http://www.w3.org/2000/svg"><defs
     id="defs1"><pattern
       xlink:href="#pattern49"
       preserveAspectRatio="xMidYMid"
       id="pattern56"
       patternTransform="matrix(7.3612159,-4.25,4.25,7.3612159,0.12915331,1.1501691e-4)" /><pattern
       xlink:href="#Strips1_2"
       preserveAspectRatio="xMidYMid"
       id="pattern49"
       patternTransform="matrix(7.3612159,-4.25,4.25,7.3612159,0,0)"
       x="0"
       y="0" /><pattern
       patternUnits="userSpaceOnUse"
       width="3"
       height="1"
       patternTransform="translate(0,0) scale(2,2)"
       preserveAspectRatio="xMidYMid"
       id="Strips1_2"
       style="fill:#000000">
      <rect
   style="stroke:none"
   x="0"
   y="-0.5"
   width="1"
   height="2"
   id="rect146" />
    </pattern><pattern
       xlink:href="#shading10"
       preserveAspectRatio="xMidYMid"
       id="pattern37"
       patternTransform="matrix(0,0.21,-0.21,0,235.65801,187.92642)"
       x="0"
       y="0" /><pattern
       patternUnits="userSpaceOnUse"
       width="426.6123"
       height="55.4942"
       patternTransform="translate(231.9442,203.8797)"
       preserveAspectRatio="xMidYMid"
       id="shading10"
       style="fill:#000000"><path
         id="use37"
         style="stroke-width:0.315146;stroke-linecap:square;paint-order:markers fill stroke;stop-color:#000000"
         d="m 420.5733,0 h 0.2749 c 0.024,8.9645 5.7641,19.2925 5.7641,27.7471 0,8.4545 -5.7641,15.465 -5.7641,27.7471 h -0.2749 c 0,-12.8073 5.6908,-20.0005 5.6908,-27.7471 1e-4,-7.7466 -5.6292,-16.6995 -5.6908,-27.7471 z m -16.5687,0 h 1.0155 c 0.023,9.4488 5.2737,18.9076 5.2737,27.7471 0,8.8395 -5.2737,15.1536 -5.2737,27.7471 h -1.0155 c 0,-12.8543 5.2089,-19.5988 5.209,-27.7471 0,-8.1483 -5.1498,-16.3841 -5.209,-27.7471 z m -16.5687,0 h 1.7561 c 0.023,9.933 4.7832,18.5227 4.7832,27.7471 0,9.2244 -4.7832,14.8421 -4.7832,27.7471 h -1.7561 c 0,-12.9013 4.7271,-19.1972 4.7271,-27.7471 0,-8.55 -4.6704,-16.0687 -4.7271,-27.7471 z m -16.5687,0 h 2.4967 c 0.022,10.4173 4.2928,18.1377 4.2928,27.7471 0,9.6093 -4.2928,14.5307 -4.2928,27.7471 h -2.4967 c 0,-12.9482 4.2452,-18.7955 4.2452,-27.7471 1e-4,-8.9516 -4.191,-15.7533 -4.2452,-27.7471 z m -16.5687,0 h 3.2373 c 0.02,10.9016 3.8024,17.7528 3.8024,27.7471 0,9.9943 -3.8024,14.2192 -3.8024,27.7471 h -3.2373 c 0,-12.9952 3.7634,-18.3938 3.7634,-27.7471 0,-9.3533 -3.7117,-15.4379 -3.7634,-27.7471 z m -16.5687,0 h 3.9779 c 0.02,11.3858 3.3119,17.3679 3.3119,27.7471 0,10.3792 -3.3119,13.9077 -3.3119,27.7471 h -3.9779 c 0,-13.0422 3.2815,-17.9921 3.2815,-27.7471 0,-9.755 -3.2322,-15.1225 -3.2815,-27.7471 z M 321.161,0 h 4.7186 c 0.019,11.8701 2.8215,16.983 2.8215,27.7471 0,10.7641 -2.8215,13.5963 -2.8215,27.7471 h -4.7186 c 0,-13.0891 2.7997,-17.5905 2.7997,-27.7471 C 323.9608,17.5904 321.2079,12.94 321.161,0 Z m -16.5687,0 h 5.4592 c 0.018,12.3544 2.3311,16.598 2.3311,27.7471 0,11.149 -2.3311,13.2848 -2.3311,27.7471 h -5.4592 c 0,-13.1361 2.3179,-17.1888 2.3179,-27.7471 0,-10.5583 -2.2735,-14.4917 -2.3179,-27.7471 z m -16.5687,0 h 6.1998 c 0.017,12.8386 1.8406,16.2131 1.8406,27.7471 0,11.534 -1.8406,12.9733 -1.8406,27.7471 h -6.1998 c 0,-13.1831 1.836,-16.7871 1.836,-27.7471 0,-10.96 -1.7941,-14.1763 -1.836,-27.7471 z m -16.5687,0 h 6.9404 c 0.016,13.3229 1.3502,15.8282 1.3502,27.7471 0,11.9189 -1.3502,12.6619 -1.3502,27.7471 h -6.9404 c 0,-13.23 1.3541,-16.3854 1.3541,-27.7471 C 272.8091,16.3854 271.4943,13.8861 271.4549,0 Z m -16.5687,0 h 7.6811 c 0.015,13.8072 0.8597,15.4432 0.8597,27.7471 0,12.3038 -0.8597,12.3504 -0.8597,27.7471 h -7.6811 c 0,-13.277 0.8723,-15.9838 0.8723,-27.7471 0,-11.7634 -0.8353,-13.5456 -0.8723,-27.7471 z m -16.5687,0 h 8.4217 c 0.014,14.2914 0.3692,15.0583 0.3692,27.7471 0,12.6888 -0.3692,12.039 -0.3692,27.7471 h -8.4217 c 0,-13.324 0.3904,-15.5821 0.3904,-27.7471 0,-12.165 -0.3559,-13.2302 -0.3904,-27.7471 z m -16.5687,0 h 9.1623 c 0.013,14.7757 -0.1212,14.6734 -0.1212,27.7471 0,13.0737 0.1212,11.7275 0.1212,27.7471 h -9.1623 c 0,-13.3709 -0.091,-15.1804 -0.091,-27.7471 1e-4,-12.5667 0.1235,-12.9148 0.091,-27.7471 z m -16.5687,0 h 9.9029 c 0.012,15.26 -0.6116,14.2884 -0.6116,27.7471 0,13.4586 0.6116,11.416 0.6116,27.7471 h -9.9029 c 0,-13.4179 -0.5733,-14.7788 -0.5733,-27.7471 0,-12.9684 0.6028,-12.5994 0.5733,-27.7471 z m -16.5687,0 h 10.6435 c 0.011,15.7442 -1.102,13.9035 -1.102,27.7471 0,13.8436 1.102,11.1046 1.102,27.7471 h -10.6435 c 0,-13.4649 -1.0552,-14.3771 -1.0552,-27.7471 0,-13.3701 1.0823,-12.284 1.0552,-27.7471 z m -16.5688,0 h 11.3842 c 0.01,16.2285 -1.5925,13.5186 -1.5925,27.7471 0,14.2285 1.5925,10.7931 1.5925,27.7471 h -11.3842 c 0,-13.5118 -1.537,-13.9754 -1.537,-27.7471 1e-4,-13.7717 1.5617,-11.9686 1.537,-27.7471 z m -16.5687,0 h 12.1248 c 0.01,16.7128 -2.0829,13.1336 -2.0829,27.7471 0,14.6134 2.0829,10.4816 2.0829,27.7471 h -12.1248 c 0,-13.5588 -2.0188,-13.5737 -2.0188,-27.7471 0,-14.1734 2.041,-11.6532 2.0188,-27.7471 z m -16.5687,0 h 12.8654 c 0.01,17.197 -2.5733,12.7487 -2.5733,27.7471 0,14.9984 2.5733,10.1702 2.5733,27.7471 h -12.8654 c 0,-13.6058 -2.5007,-13.1721 -2.5007,-27.7471 0,-14.5751 2.5204,-11.3378 2.5007,-27.7471 z m -16.5687,0 h 13.606 c 0.01,17.6813 -3.0638,12.3638 -3.0638,27.7471 0,15.3833 3.0638,9.8587 3.0638,27.7471 h -13.606 c 0,-13.6527 -2.9826,-12.7704 -2.9826,-27.7471 1e-4,-14.9767 2.9999,-11.0224 2.9826,-27.7471 z m -16.5687,0 h 14.3466 c 0.01,18.1656 -3.5542,11.9788 -3.5542,27.7471 0,15.7682 3.5542,9.5472 3.5542,27.7471 h -14.3466 c 0,-13.6997 -3.4644,-12.3687 -3.4644,-27.7471 0,-15.3784 3.4792,-10.7071 3.4644,-27.7471 z M 89.1991,0 h 15.0872 c 0,18.6498 -4.0446,11.5939 -4.0446,27.7471 0,16.1532 4.0446,9.2358 4.0446,27.7471 H 89.1991 c 0,-13.7467 -3.9463,-11.967 -3.9463,-27.7471 C 85.2528,11.967 89.2114,17.3554 89.1991,0 Z M 72.6304,0 h 15.8278 c 0,19.1341 -4.5351,11.209 -4.5351,27.7471 0,16.5381 4.5351,8.9243 4.5351,27.7471 H 72.6304 c 0,-13.7936 -4.4282,-11.5654 -4.4282,-27.7471 C 68.2023,11.5653 72.6402,17.6708 72.6304,0 Z M 56.0617,0 h 16.5684 c 0,19.6184 -5.0255,10.824 -5.0255,27.7471 0,16.923 5.0255,8.6129 5.0255,27.7471 H 56.0617 c 0,-13.8406 -4.91,-11.1637 -4.91,-27.7471 0,-16.5834 4.9174,-9.7609 4.91,-27.7471 z M 39.493,0 h 17.3091 c 0,20.1026 -5.516,10.4391 -5.516,27.7471 0,17.3079 5.516,8.3014 5.516,27.7471 H 39.493 c 0,-13.8876 -5.3919,-10.762 -5.3919,-27.7471 C 34.1011,10.762 39.4979,18.3016 39.493,0 Z M 22.9242,0 H 40.974 c 9e-4,20.5869 -6.0064,10.0542 -6.0064,27.7471 0,17.6929 6.0064,7.9899 6.0064,27.7471 H 22.9242 c 0,-13.9346 -5.8737,-10.3604 -5.8737,-27.7471 0,-17.3868 5.8762,-9.1301 5.8737,-27.7471 z M 6.3555,0 h 18.7904 c 0,21.0712 -6.4969,9.6693 -6.4969,27.7471 0,18.0778 6.4969,7.6785 6.4969,27.7471 H 6.3555 C 6.3555,41.5127 0,45.5355 0,27.7471 0,9.9586 6.3555,18.9324 6.3555,0 Z" /></pattern></defs><g
     id="layer4"
     style="display:inline"><g
       id="g70"
       transform="matrix(1.7958991,0,0,1.5996307,-125.71702,-91.317441)"><g
         id="g69"
         transform="translate(6.1474773,-0.38421699)"
         style="display:inline"><path
           id="path5"
           style="display:inline;fill:#ffff00;fill-opacity:1;stroke:#000000;stroke-width:3;stroke-dasharray:none;stroke-opacity:1"
           d="m 151.03594,114.16161 a 8.8378171,8.8378171 0 0 0 -8.31319,5.90094 13.132952,13.132952 0 0 0 -4.30103,-0.72657 13.132952,13.132952 0 0 0 -10.54147,5.35626 8.8378171,8.8378171 0 0 0 -5.64877,-2.04277 8.8378171,8.8378171 0 0 0 -8.83821,8.83822 8.8378171,8.8378171 0 0 0 0.0186,0.25838 13.132952,13.132952 0 0 0 -5.98774,11.01484 13.132952,13.132952 0 0 0 13.13252,13.13304 13.132952,13.132952 0 0 0 8.34576,-3.01738 13.132952,13.132952 0 0 0 10.92233,5.86527 13.132952,13.132952 0 0 0 10.83758,-5.75055 13.132952,13.132952 0 0 0 3.58169,0.50591 13.132952,13.132952 0 0 0 4.48655,-0.82527 13.132952,13.132952 0 0 0 10.7549,5.64048 13.132952,13.132952 0 0 0 9.02271,-3.63027 13.132952,13.132952 0 0 0 8.36228,3.02979 13.132952,13.132952 0 0 0 13.13304,-13.13305 13.132952,13.132952 0 0 0 -8.50387,-12.28607 8.8378171,8.8378171 0 0 0 0.0543,-0.75913 8.8378171,8.8378171 0 0 0 -8.83771,-8.8377 8.8378171,8.8378171 0 0 0 -2.16316,0.2868 13.132952,13.132952 0 0 0 -12.35067,-8.67131 13.132952,13.132952 0 0 0 -9.56841,4.17546 8.8378171,8.8378171 0 0 0 -7.59799,-4.32532 z" /><path
           id="path37"
           style="display:inline;fill:url(#pattern37);fill-opacity:1;stroke:#000000;stroke-width:3;stroke-dasharray:none;stroke-opacity:1"
           d="m 151.03594,114.16161 a 8.8378171,8.8378171 0 0 0 -8.31319,5.90094 13.132952,13.132952 0 0 0 -4.30103,-0.72657 13.132952,13.132952 0 0 0 -10.54147,5.35626 8.8378171,8.8378171 0 0 0 -5.64877,-2.04277 8.8378171,8.8378171 0 0 0 -8.83821,8.83822 8.8378171,8.8378171 0 0 0 0.0186,0.25838 13.132952,13.132952 0 0 0 -5.98774,11.01484 13.132952,13.132952 0 0 0 13.13252,13.13304 13.132952,13.132952 0 0 0 8.34576,-3.01738 13.132952,13.132952 0 0 0 10.92233,5.86527 13.132952,13.132952 0 0 0 10.83758,-5.75055 13.132952,13.132952 0 0 0 3.58169,0.50591 13.132952,13.132952 0 0 0 4.48655,-0.82527 13.132952,13.132952 0 0 0 10.7549,5.64048 13.132952,13.132952 0 0 0 9.02271,-3.63027 13.132952,13.132952 0 0 0 8.36228,3.02979 13.132952,13.132952 0 0 0 13.13304,-13.13305 13.132952,13.132952 0 0 0 -8.50387,-12.28607 8.8378171,8.8378171 0 0 0 0.0543,-0.75913 8.8378171,8.8378171 0 0 0 -8.83771,-8.8377 8.8378171,8.8378171 0 0 0 -2.16316,0.2868 13.132952,13.132952 0 0 0 -12.35067,-8.67131 13.132952,13.132952 0 0 0 -9.56841,4.17546 8.8378171,8.8378171 0 0 0 -7.59799,-4.32532 z" /></g><path
         id="path67"
         style="display:inline;fill:#000000;fill-opacity:1;stroke:#000000;stroke-width:3.15376;stroke-linecap:square;stroke-linejoin:miter;stroke-dasharray:none;stroke-opacity:1"
         d="m 100.18288,156.86456 v 2.21638 l 12.90182,79.69563 h 32.79899 24.14896 32.79841 l 12.90239,-79.69563 v -2.21638 h -45.7008 -24.14896 z" /><g
         id="g51"
         transform="matrix(-1.0689462,0,0,1.0617959,316.78556,70.093306)"
         style="display:inline;stroke-width:1.87526;stroke-dasharray:none"><rect
           style="display:inline;fill:#ffffff;fill-opacity:1;stroke:#000000;stroke-width:1.87526;stroke-linecap:square;stroke-linejoin:miter;stroke-dasharray:none"
           id="rect50"
           width="109.035"
           height="14.661372"
           x="93.945168"
           y="64.935814"
           transform="rotate(-0.05102449)" /><rect
           style="display:inline;fill:url(#pattern56);fill-opacity:1;stroke:#000000;stroke-width:1.87526;stroke-linecap:square;stroke-linejoin:miter;stroke-dasharray:none"
           id="rect51"
           width="109.03498"
           height="14.661372"
           x="94.074318"
           y="64.935928"
           transform="rotate(-0.05102449)" /></g><g
         id="g60"
         transform="matrix(-0.91082449,0.55950402,0.55576144,0.90473188,240.17746,-48.533205)"
         style="stroke-width:1.87526;stroke-dasharray:none"><rect
           style="display:inline;fill:#ffffff;fill-opacity:1;stroke:#000000;stroke-width:1.87526;stroke-linecap:square;stroke-linejoin:miter;stroke-dasharray:none"
           id="rect59"
           width="109.035"
           height="14.661372"
           x="93.945168"
           y="64.935814"
           transform="rotate(-0.05102449)" /><rect
           style="display:inline;fill:url(#pattern56);fill-opacity:1;stroke:#000000;stroke-width:1.87526;stroke-linecap:square;stroke-linejoin:miter;stroke-dasharray:none"
           id="rect60"
           width="109.03498"
           height="14.661372"
           x="94.074318"
           y="64.935928"
           transform="rotate(-0.05102449)" /></g><text
         xml:space="preserve"
         style="font-style:normal;font-variant:normal;font-weight:normal;font-stretch:normal;font-size:50.8824px;font-family:Broadway;-inkscape-font-specification:Broadway;text-align:start;writing-mode:lr-tb;direction:ltr;text-anchor:start;opacity:1;fill:#ffffff;fill-opacity:1;stroke:#000000;stroke-width:0;stroke-linecap:square;stroke-linejoin:miter;stroke-dasharray:none;stroke-opacity:1"
         x="134.021"
         y="189.82568"
         id="text64"
         transform="scale(0.89485467,1.1174999)"><tspan
           id="tspan64"
           style="font-style:normal;font-variant:normal;font-weight:normal;font-stretch:normal;font-family:Broadway;-inkscape-font-specification:Broadway;fill:#ffffff;fill-opacity:1;stroke-width:0"
           x="134.021"
           y="189.82568">CM</tspan></text></g></g></svg>
