<?xml version="1.0" encoding="UTF-8" standalone="no"?>
<!-- Created with Inkscape (http://www.inkscape.org/) -->

<svg
   width="253.23358mm"
   height="296.92566mm"
   viewBox="0 0 253.23358 296.92566"
   version="1.1"
   id="svg1"
   xml:space="preserve"
   xmlns:xlink="http://www.w3.org/1999/xlink"
   xmlns="http://www.w3.org/2000/svg"
   xmlns:svg="http://www.w3.org/2000/svg"><defs
     id="defs1"><pattern
       xlink:href="#Wave"
       preserveAspectRatio="xMidYMid"
       id="pattern14"
       patternTransform="scale(1)" /><pattern
       patternUnits="userSpaceOnUse"
       width="24"
       height="10"
       preserveAspectRatio="xMidYMid"
       id="Wave"
       style="fill:#000000"
       x="0"
       y="0"><g
         id="wave_g"
         style="display:inline"><path
           d="M 12,-2 C 9.1666695,-2 7.1679672,-0.56445187 5.4179687,0.68554687 3.6679703,1.9355456 2.1666645,3 0,3 V 5 C 2.8333305,5 4.8320328,3.5644519 6.5820312,2.3144531 8.3320297,1.0644544 9.8333355,0 12,0 14.166665,0 15.667971,1.0644544 17.417969,2.3144531 19.167967,3.5644519 21.166669,5 24,5 V 3 C 21.833335,3 20.332029,1.9355456 18.582031,0.68554687 16.832033,-0.56445189 14.833331,-2 12,-2 Z"
           id="path3" /><path
           d="M 12,3 C 9.1666695,3 7.1679672,4.4355481 5.4179687,5.6855469 3.6679703,6.9355456 2.1666645,8 0,8 v 2 C 2.8333305,10 4.8320328,8.5644519 6.5820312,7.3144531 8.3320297,6.0644544 9.8333355,5 12,5 14.166665,5 15.667971,6.0644544 17.417969,7.3144531 19.167967,8.5644519 21.166669,10 24,10 V 8 C 21.833335,8 20.332029,6.9355456 18.582031,5.6855469 16.832033,4.4355481 14.833331,3 12,3 Z"
           id="path4" /><path
           d="M 12,8 C 9.1666695,8 7.1679672,9.4355481 5.4179687,10.685547 3.6679703,11.935546 2.1666645,13 0,13 v 2 C 2.8333305,15 4.8320328,13.564452 6.5820312,12.314453 8.3320297,11.064454 9.8333355,10 12,10 c 2.166665,0 3.667971,1.064454 5.417969,2.314453 C 19.167967,13.564452 21.166669,15 24,15 V 13 C 21.833335,13 20.332029,11.935546 18.582031,10.685547 16.832033,9.4355481 14.833331,8 12,8 Z"
           id="path13" /></g></pattern><pattern
       xlink:href="#pattern49"
       preserveAspectRatio="xMidYMid"
       id="pattern56"
       patternTransform="matrix(7.3612159,-4.25,4.25,7.3612159,0.12915331,1.1501691e-4)" /><pattern
       xlink:href="#Strips1_2"
       preserveAspectRatio="xMidYMid"
       id="pattern49"
       patternTransform="matrix(7.3612159,-4.25,4.25,7.3612159,0,0)"
       x="0"
       y="0" /><pattern
       patternUnits="userSpaceOnUse"
       width="3"
       height="1"
       patternTransform="translate(0,0) scale(2,2)"
       preserveAspectRatio="xMidYMid"
       id="Strips1_2"
       style="fill:#000000">
      <rect
   style="stroke:none"
   x="0"
   y="-0.5"
   width="1"
   height="2"
   id="rect146" />
    </pattern><meshgradient
       id="meshgradient3"
       gradientUnits="userSpaceOnUse"
       x="94.00296"
       y="64.755028"><meshrow
         id="meshrow3"><meshpatch
           id="meshpatch3"><stop
             path="c 36.3924,0  72.7848,0  109.177,0"
             style="stop-color:#ffffff;stop-opacity:1"
             id="stop3" /><stop
             path="c 0,4.91949  0,9.83898  0,14.7585"
             style="stop-color:#000000;stop-opacity:1"
             id="stop4" /><stop
             path="c -36.3924,0  -72.7848,0  -109.177,0"
             style="stop-color:#ffffff;stop-opacity:1"
             id="stop5" /><stop
             path="c 0,-4.91949  0,-9.83898  0,-14.7585"
             style="stop-color:#000000;stop-opacity:1"
             id="stop6" /></meshpatch></meshrow></meshgradient></defs><g
     id="layer4"
     style="display:inline"
     transform="translate(-23.383203,-1.5371514)"><g
       id="g70"
       transform="matrix(1.9850737,0,0,1.6588912,-154.76022,-100.25737)"><g
         id="g69"
         transform="translate(6.1474773,-0.38421699)"
         style="display:inline;fill:url(#pattern14);fill-opacity:1"><path
           id="path5"
           style="display:inline;fill:url(#pattern14);fill-opacity:1;stroke:#000000;stroke-width:3;stroke-dasharray:none;stroke-opacity:1"
           d="m 151.03594,114.16161 a 8.8378171,8.8378171 0 0 0 -8.31319,5.90094 13.132952,13.132952 0 0 0 -4.30103,-0.72657 13.132952,13.132952 0 0 0 -10.54147,5.35626 8.8378171,8.8378171 0 0 0 -5.64877,-2.04277 8.8378171,8.8378171 0 0 0 -8.83821,8.83822 8.8378171,8.8378171 0 0 0 0.0186,0.25838 13.132952,13.132952 0 0 0 -5.98774,11.01484 13.132952,13.132952 0 0 0 13.13252,13.13304 13.132952,13.132952 0 0 0 8.34576,-3.01738 13.132952,13.132952 0 0 0 10.92233,5.86527 13.132952,13.132952 0 0 0 10.83758,-5.75055 13.132952,13.132952 0 0 0 3.58169,0.50591 13.132952,13.132952 0 0 0 4.48655,-0.82527 13.132952,13.132952 0 0 0 10.7549,5.64048 13.132952,13.132952 0 0 0 9.02271,-3.63027 13.132952,13.132952 0 0 0 8.36228,3.02979 13.132952,13.132952 0 0 0 13.13304,-13.13305 13.132952,13.132952 0 0 0 -8.50387,-12.28607 8.8378171,8.8378171 0 0 0 0.0543,-0.75913 8.8378171,8.8378171 0 0 0 -8.83771,-8.8377 8.8378171,8.8378171 0 0 0 -2.16316,0.2868 13.132952,13.132952 0 0 0 -12.35067,-8.67131 13.132952,13.132952 0 0 0 -9.56841,4.17546 8.8378171,8.8378171 0 0 0 -7.59799,-4.32532 z" /><g
           id="g15"
           style="display:inline;fill:#ffffff;fill-opacity:1"><path
             id="path14"
             style="display:inline;fill:#ffffff;fill-opacity:1;stroke:#000000;stroke-width:3;stroke-dasharray:none;stroke-opacity:1"
             d="m 151.03594,114.16161 a 8.8378171,8.8378171 0 0 0 -8.31319,5.90094 13.132952,13.132952 0 0 0 -4.30103,-0.72657 13.132952,13.132952 0 0 0 -10.54147,5.35626 8.8378171,8.8378171 0 0 0 -5.64877,-2.04277 8.8378171,8.8378171 0 0 0 -8.83821,8.83822 8.8378171,8.8378171 0 0 0 0.0186,0.25838 13.132952,13.132952 0 0 0 -5.98774,11.01484 13.132952,13.132952 0 0 0 13.13252,13.13304 13.132952,13.132952 0 0 0 8.34576,-3.01738 13.132952,13.132952 0 0 0 10.92233,5.86527 13.132952,13.132952 0 0 0 10.83758,-5.75055 13.132952,13.132952 0 0 0 3.58169,0.50591 13.132952,13.132952 0 0 0 4.48655,-0.82527 13.132952,13.132952 0 0 0 10.7549,5.64048 13.132952,13.132952 0 0 0 9.02271,-3.63027 13.132952,13.132952 0 0 0 8.36228,3.02979 13.132952,13.132952 0 0 0 13.13304,-13.13305 13.132952,13.132952 0 0 0 -8.50387,-12.28607 8.8378171,8.8378171 0 0 0 0.0543,-0.75913 8.8378171,8.8378171 0 0 0 -8.83771,-8.8377 8.8378171,8.8378171 0 0 0 -2.16316,0.2868 13.132952,13.132952 0 0 0 -12.35067,-8.67131 13.132952,13.132952 0 0 0 -9.56841,4.17546 8.8378171,8.8378171 0 0 0 -7.59799,-4.32532 z" /><path
             id="path15"
             style="display:inline;fill:#ffffff;fill-opacity:1;stroke:#000000;stroke-width:3;stroke-dasharray:none;stroke-opacity:1"
             d="m 151.03594,114.16161 a 8.8378171,8.8378171 0 0 0 -8.31319,5.90094 13.132952,13.132952 0 0 0 -4.30103,-0.72657 13.132952,13.132952 0 0 0 -10.54147,5.35626 8.8378171,8.8378171 0 0 0 -5.64877,-2.04277 8.8378171,8.8378171 0 0 0 -8.83821,8.83822 8.8378171,8.8378171 0 0 0 0.0186,0.25838 13.132952,13.132952 0 0 0 -5.98774,11.01484 13.132952,13.132952 0 0 0 13.13252,13.13304 13.132952,13.132952 0 0 0 8.34576,-3.01738 13.132952,13.132952 0 0 0 10.92233,5.86527 13.132952,13.132952 0 0 0 10.83758,-5.75055 13.132952,13.132952 0 0 0 3.58169,0.50591 13.132952,13.132952 0 0 0 4.48655,-0.82527 13.132952,13.132952 0 0 0 10.7549,5.64048 13.132952,13.132952 0 0 0 9.02271,-3.63027 13.132952,13.132952 0 0 0 8.36228,3.02979 13.132952,13.132952 0 0 0 13.13304,-13.13305 13.132952,13.132952 0 0 0 -8.50387,-12.28607 8.8378171,8.8378171 0 0 0 0.0543,-0.75913 8.8378171,8.8378171 0 0 0 -8.83771,-8.8377 8.8378171,8.8378171 0 0 0 -2.16316,0.2868 13.132952,13.132952 0 0 0 -12.35067,-8.67131 13.132952,13.132952 0 0 0 -9.56841,4.17546 8.8378171,8.8378171 0 0 0 -7.59799,-4.32532 z" /></g><path
           id="path37"
           style="display:inline;fill:url(#pattern14);fill-opacity:1;stroke:#000000;stroke-width:3;stroke-dasharray:none;stroke-opacity:1"
           d="m 151.03594,114.16161 a 8.8378171,8.8378171 0 0 0 -8.31319,5.90094 13.132952,13.132952 0 0 0 -4.30103,-0.72657 13.132952,13.132952 0 0 0 -10.54147,5.35626 8.8378171,8.8378171 0 0 0 -5.64877,-2.04277 8.8378171,8.8378171 0 0 0 -8.83821,8.83822 8.8378171,8.8378171 0 0 0 0.0186,0.25838 13.132952,13.132952 0 0 0 -5.98774,11.01484 13.132952,13.132952 0 0 0 13.13252,13.13304 13.132952,13.132952 0 0 0 8.34576,-3.01738 13.132952,13.132952 0 0 0 10.92233,5.86527 13.132952,13.132952 0 0 0 10.83758,-5.75055 13.132952,13.132952 0 0 0 3.58169,0.50591 13.132952,13.132952 0 0 0 4.48655,-0.82527 13.132952,13.132952 0 0 0 10.7549,5.64048 13.132952,13.132952 0 0 0 9.02271,-3.63027 13.132952,13.132952 0 0 0 8.36228,3.02979 13.132952,13.132952 0 0 0 13.13304,-13.13305 13.132952,13.132952 0 0 0 -8.50387,-12.28607 8.8378171,8.8378171 0 0 0 0.0543,-0.75913 8.8378171,8.8378171 0 0 0 -8.83771,-8.8377 8.8378171,8.8378171 0 0 0 -2.16316,0.2868 13.132952,13.132952 0 0 0 -12.35067,-8.67131 13.132952,13.132952 0 0 0 -9.56841,4.17546 8.8378171,8.8378171 0 0 0 -7.59799,-4.32532 z" /></g><path
         id="path67"
         style="display:inline;fill:#ffffff;fill-opacity:1;stroke:#000000;stroke-width:3.15376;stroke-linecap:square;stroke-linejoin:miter;stroke-dasharray:none;stroke-opacity:1"
         d="m 100.18288,156.86456 v 2.21638 l 12.90182,79.69563 h 32.79899 24.14896 32.79841 l 12.90239,-79.69563 v -2.21638 h -45.7008 -24.14896 z" /><g
         id="g51"
         transform="matrix(-1.0689462,0,0,1.0617959,316.78556,70.093306)"
         style="display:inline;stroke-width:1.87526;stroke-dasharray:none"><rect
           style="display:inline;fill:#ffffff;fill-opacity:1;stroke:#000000;stroke-width:1.87526;stroke-linecap:square;stroke-linejoin:miter;stroke-dasharray:none"
           id="rect50"
           width="109.035"
           height="14.661372"
           x="93.945168"
           y="64.935814"
           transform="rotate(-0.05102449)" /><rect
           style="display:inline;fill:url(#pattern56);fill-opacity:1;stroke:#000000;stroke-width:1.87526;stroke-linecap:square;stroke-linejoin:miter;stroke-dasharray:none"
           id="rect51"
           width="109.03498"
           height="14.661372"
           x="94.074318"
           y="64.935928"
           transform="rotate(-0.05102449)" /></g><g
         id="g60"
         transform="matrix(-0.91082449,0.55950402,0.55576144,0.90473188,240.17746,-48.533205)"
         style="fill:url(#meshgradient3);fill-opacity:1;stroke-width:1.87526;stroke-dasharray:none"><rect
           style="display:inline;fill:#ffffff;fill-opacity:1;stroke:#000000;stroke-width:1.87526;stroke-linecap:square;stroke-linejoin:miter;stroke-dasharray:none"
           id="rect59"
           width="109.035"
           height="14.661372"
           x="93.945168"
           y="64.935814"
           transform="rotate(-0.05102449)" /><rect
           style="display:inline;fill:url(#pattern56);fill-opacity:1;stroke:#000000;stroke-width:1.87526;stroke-linecap:square;stroke-linejoin:miter;stroke-dasharray:none"
           id="rect60"
           width="109.03498"
           height="14.661372"
           x="94.074318"
           y="64.935928"
           transform="rotate(-0.05102449)" /></g><text
         xml:space="preserve"
         style="font-style:normal;font-variant:normal;font-weight:normal;font-stretch:normal;font-size:50.8824px;font-family:Broadway;-inkscape-font-specification:Broadway;text-align:start;writing-mode:lr-tb;direction:ltr;text-anchor:start;opacity:1;fill:#ffffff;fill-opacity:1;stroke:#000000;stroke-width:0;stroke-linecap:square;stroke-linejoin:miter;stroke-dasharray:none;stroke-opacity:1"
         x="134.021"
         y="189.82568"
         id="text64"
         transform="scale(0.89485467,1.1174999)"><tspan
           id="tspan64"
           style="font-style:normal;font-variant:normal;font-weight:normal;font-stretch:normal;font-family:Broadway;-inkscape-font-specification:Broadway;fill:#ffffff;fill-opacity:1;stroke-width:0"
           x="134.021"
           y="189.82568">CM</tspan></text></g></g></svg>
